<?xml version="1.0" encoding="UTF-8" standalone="no"?>
<!-- Created with Inkscape (http://www.inkscape.org/) -->

<svg
   width="603.25mm"
   height="603.25mm"
   viewBox="0 0 274.20455 274.20455"
   version="1.1"
   id="svg1"
   xml:space="preserve"
   xmlns="http://www.w3.org/2000/svg"
   xmlns:svg="http://www.w3.org/2000/svg"><defs
     id="defs1" /><g
     id="layer1"
     transform="translate(53.974998,10.31875)"><g
       id="g15"><path
         style="fill:#f97316;fill-opacity:1"
         d="m -53.974998,148.43125 v -158.75 H 104.775 263.525 v 158.75 158.75 H 104.775 -53.974998 Z m 136.403587,-25.3824 c -0.09592,-0.1552 -0.291131,-0.28218 -0.433801,-0.28218 -0.14267,0 -0.105877,0.16658 0.08176,0.37019 0.379851,0.41217 0.623519,0.35126 0.35204,-0.088 z m 45.504451,-9.75609 c -0.0815,-0.0815 -0.29495,-1.6e-4 -0.47443,0.18066 -0.25936,0.2613 -0.22897,0.2917 0.14811,0.14811 0.26094,-0.0994 0.40779,-0.2473 0.32632,-0.32877 z m -30.235643,-5.78257 c -0.181901,-0.0734 -0.479557,-0.0734 -0.661458,0 -0.181901,0.0734 -0.03307,0.13345 0.330729,0.13345 0.363802,0 0.51263,-0.0601 0.330729,-0.13345 z m 6.464593,-6.22438 c -0.0845,-0.21107 -0.14715,-0.14838 -0.15985,0.15985 -0.0115,0.27891 0.0511,0.43518 0.13896,0.34726 0.0879,-0.0879 0.0973,-0.31612 0.0209,-0.50711 z m 1.61661,-0.58712 c -0.0427,-0.0232 -0.31568,-0.21685 -0.60672,-0.43033 -0.47684,-0.349768 -0.49669,-0.346498 -0.20074,0.0331 0.18064,0.23167 0.2438,0.50585 0.14036,0.60929 -0.10344,0.10345 0.0218,0.10755 0.27829,0.009 0.2565,-0.0984 0.43147,-0.19794 0.38881,-0.22115 z m -1.44034,-0.56237 c -0.20987,-0.546926 -0.35701,-0.482476 -0.35701,0.15638 0,0.29963 0.11386,0.47441 0.25303,0.3884 0.13916,-0.086 0.18596,-0.33116 0.10398,-0.54478 z"
         id="path20" /><path
         style="fill:#f97316;fill-opacity:1"
         d="m -53.974998,148.43125 v -158.75 H 104.775 263.525 c 0,0 0,105.833333 0,158.75 0,52.91667 0,158.75 0,158.75 H 104.775 -53.974998 Z m 159.965768,0.99219 0.50402,-0.59532 -0.66146,0.52635 c -0.3638,0.28949 -0.71106,0.55738 -0.7717,0.59531 -0.0606,0.0379 0.0102,0.069 0.15743,0.069 0.14722,0 0.49449,-0.26789 0.77171,-0.59531 z M 107.19,148.4974 c 0.32911,-0.41965 0.31975,-0.42901 -0.0999,-0.0999 -0.25467,0.19972 -0.46303,0.40808 -0.46303,0.46302 0,0.21776 0.21728,0.0776 0.56292,-0.36312 z m 10.19681,0.0778 c 0,-0.21188 -0.10116,-0.32272 -0.2248,-0.2463 -0.12365,0.0764 -0.15631,0.24977 -0.0726,0.38524 0.21394,0.34617 0.29738,0.30719 0.29738,-0.13894 z m -9.13848,-1.13612 c 0.32911,-0.41964 0.31975,-0.429 -0.0999,-0.0999 -0.25466,0.19972 -0.46302,0.40808 -0.46302,0.46302 0,0.21776 0.21727,0.0776 0.56291,-0.36313 z m 2.08795,-1.79199 c 0.27961,-0.33691 0.26324,-0.37563 -0.0999,-0.23628 -0.23886,0.0917 -0.4343,0.27298 -0.4343,0.40293 0,0.34025 0.15317,0.29246 0.5342,-0.16665 z m 1.1856,-1.18457 c 0.26339,-0.29104 0.41935,-0.52917 0.34659,-0.52917 -0.0728,0 -0.34779,0.23813 -0.61118,0.52917 -0.26339,0.29104 -0.41935,0.52917 -0.34659,0.52917 0.0728,0 0.34779,-0.23813 0.61118,-0.52917 z m 1.93327,-2.25596 c -0.0815,-0.0815 -0.2294,0.0654 -0.32876,0.32632 -0.14359,0.37708 -0.1132,0.40747 0.14811,0.14811 0.18082,-0.17947 0.26211,-0.39297 0.18065,-0.47443 z m 1.14318,-1.11748 c 0.32911,-0.41964 0.31975,-0.429 -0.0999,-0.0999 -0.25466,0.19972 -0.46302,0.40808 -0.46302,0.46302 0,0.21776 0.21727,0.0776 0.56291,-0.36313 z m -33.429457,-0.865 c 0.444059,-0.71105 0.276835,-0.65859 -0.484755,0.15209 -0.349365,0.37188 -0.456855,0.60771 -0.238867,0.52406 0.217989,-0.0836 0.543618,-0.38792 0.723622,-0.67615 z m 42.605027,-0.92794 c -0.0815,-0.0815 -0.2294,0.0654 -0.32876,0.32632 -0.14359,0.37709 -0.1132,0.40748 0.14811,0.14812 0.18082,-0.17948 0.26211,-0.39297 0.18065,-0.47444 z m 0.74156,-1.34451 c 0.21938,-0.52505 0.35093,-1.00258 0.29233,-1.06118 -0.0586,-0.0586 -0.29411,0.37099 -0.52338,0.95464 -0.51836,1.31962 -0.31499,1.41339 0.23105,0.10654 z m -40.99532,0.0402 c 0,-0.21188 -0.10116,-0.32272 -0.224802,-0.2463 -0.123641,0.0764 -0.156301,0.24977 -0.07258,0.38523 0.213948,0.34618 0.297381,0.3072 0.297382,-0.13893 z m 34.61689,-2.47685 c 1.04665,-2.08384 0.76085,-1.96516 -0.40117,0.16658 -0.58003,1.06408 -1.05461,2.01331 -1.05461,2.10939 0,0.29672 0.76177,-0.89424 1.45578,-2.27597 z m -33.061038,0.96315 c 0.87652,-0.92621 0.91191,-1.00119 0.218542,-0.46302 -0.715483,0.55534 -1.584356,1.5682 -1.345263,1.5682 0.04446,0 0.551485,-0.49733 1.126721,-1.10518 z m 40.532898,-1.07763 c 0.0407,-0.78852 0.0233,-0.80846 -0.20882,-0.24015 -0.13925,0.34086 -0.18639,0.72782 -0.10476,0.8599 0.23037,0.37274 0.26601,0.30229 0.31358,-0.61975 z m -38.957847,-0.19844 c 0.08994,-0.14552 0.03743,-0.26458 -0.116677,-0.26458 -0.154109,0 -0.280198,0.11906 -0.280198,0.26458 0,0.14552 0.0525,0.26459 0.116677,0.26459 0.06417,0 0.190261,-0.11907 0.280198,-0.26459 z m 1.20259,-1.33972 c 0.31744,-0.4458 0.733561,-0.75053 0.924713,-0.67718 0.191153,0.0734 0.485916,-0.0334 0.655031,-0.23713 0.251305,-0.3028 0.195968,-0.34901 -0.302885,-0.25294 -0.653835,0.12591 -2.678497,1.97781 -2.162327,1.97781 0.169567,0 0.568027,-0.36475 0.885468,-0.81056 z m 48.087897,-0.89498 c -0.41909,-0.80772 -0.45433,-0.8054 -0.34586,0.0227 0.0545,0.41622 0.10915,0.87583 0.1214,1.02135 0.0123,0.14552 0.13122,0.0924 0.26435,-0.11804 0.15051,-0.23788 0.13542,-0.58818 -0.0399,-0.92604 z m -16.89992,0.0519 c -0.014,-0.39779 -0.071,-0.46363 -0.17196,-0.19844 -0.0831,0.21828 -0.28205,0.48435 -0.44213,0.59126 -0.17953,0.1199 -0.11364,0.19594 0.17196,0.19844 0.31108,0.003 0.45617,-0.1913 0.44213,-0.59126 z m -29.17147,-1.16438 c 0,-0.26048 -0.08916,-0.27458 -0.352777,-0.0558 -0.194028,0.16103 -0.352778,0.31789 -0.352778,0.34857 0,0.0307 0.15875,0.0558 0.352778,0.0558 0.194027,0 0.352777,-0.15686 0.352777,-0.34858 z m 29.63769,-0.142 c -0.0845,-0.21107 -0.14716,-0.14837 -0.15986,0.15985 -0.0115,0.27892 0.051,0.43519 0.13897,0.34727 0.0879,-0.0879 0.0973,-0.31612 0.0209,-0.50712 z m 15.42842,-0.66803 c -0.28829,-0.4496 -0.29576,-0.44902 -0.15102,0.0117 0.0837,0.26656 0.16167,0.62375 0.17316,0.79375 0.0151,0.22308 0.0571,0.21983 0.15102,-0.0117 0.0716,-0.17641 -0.006,-0.5336 -0.17316,-0.79375 z m -43.809339,0.25462 c 0.109141,-0.10914 0.327476,-0.19844 0.485189,-0.19844 0.157714,0 0.305026,-0.24805 0.327361,-0.55121 0.04479,-0.60801 -0.555276,-0.76012 -0.771877,-0.19566 -0.07504,0.19555 -0.129528,0.43029 -0.12108,0.52163 0.0084,0.0913 -0.143637,0.26686 -0.337967,0.39005 -0.19433,0.12318 -0.224343,0.22579 -0.0667,0.22801 0.157647,0.002 0.375929,-0.0852 0.485069,-0.19438 z m 35.967009,-1.65365 c 0.11955,-0.65151 0.0928,-0.80839 -0.0902,-0.52916 -0.14309,0.21828 -0.26198,0.68461 -0.26421,1.03628 -0.005,0.84921 0.14506,0.63397 0.35445,-0.50712 z m 6.94661,0.12356 c -0.23695,-0.23694 -0.36824,-0.53204 -0.29177,-0.65577 0.0765,-0.12374 0.0243,-0.29591 -0.11603,-0.38261 -0.34215,-0.21146 -0.12225,0.86745 0.27415,1.34509 0.17175,0.20695 0.36902,0.31953 0.43836,0.25018 0.0694,-0.0693 -0.0678,-0.31994 -0.30471,-0.55689 z M 93.068109,129.1828 c -0.124409,-0.37849 1.47187,-2.2073 1.812538,-2.07657 0.231002,0.0886 0.28763,-0.0149 0.17405,-0.31815 -0.142401,-0.38024 -0.104298,-0.39752 0.247159,-0.11207 0.342798,0.27842 0.443543,0.26444 0.575674,-0.0799 0.105198,-0.27414 0.05497,-0.35236 -0.146355,-0.22794 -0.204703,0.12652 -0.250397,0.0432 -0.137565,-0.25084 0.303713,-0.79146 -0.188417,-0.43074 -1.516275,1.11141 -1.38476,1.60824 -1.695916,2.15248 -1.230632,2.15248 0.157647,0 0.25728,-0.0893 0.221406,-0.19844 z m 27.233471,-0.64492 c -0.0845,-0.21107 -0.14716,-0.14837 -0.15986,0.15985 -0.0115,0.27892 0.051,0.43519 0.13897,0.34727 0.0879,-0.0879 0.0973,-0.31612 0.0209,-0.50712 z m 7.28812,-3.72132 c 0.0395,-1.12812 -0.0175,-2.05086 -0.12668,-2.05052 -0.10914,3.4e-4 -0.17842,1.34007 -0.15396,2.97718 0.0456,3.05495 0.15384,2.69771 0.28064,-0.92666 z m 5.7603,3.34557 c 0,-0.21897 -0.51375,-0.34281 -0.63154,-0.15222 -0.0764,0.12364 0.0344,0.2248 0.24631,0.2248 0.21188,0 0.38523,-0.0327 0.38523,-0.0726 z m -13.31039,-1.09096 c -0.0671,-0.25743 -0.12639,-0.11087 -0.13178,0.32569 -0.005,0.43657 0.0495,0.64719 0.12197,0.46806 0.0725,-0.17913 0.0769,-0.53632 0.01,-0.79375 z m 0.59101,-1.98941 c -0.0223,-1.49159 -0.13247,-3.18823 -0.24476,-3.77031 l -0.20417,-1.05834 -0.0618,1.32292 c -0.034,0.72761 -0.0214,1.44198 0.0279,1.5875 0.0493,0.14552 0.10703,0.80037 0.12831,1.45521 0.0213,0.65484 0.0546,1.63711 0.074,2.18281 0.0194,0.54571 0.0996,0.99219 0.1782,0.99219 0.0786,0 0.12463,-1.22039 0.10231,-2.71198 z m 12.0394,2.47738 c 0.0797,-0.12904 -0.0621,-0.39693 -0.31512,-0.59532 -0.40644,-0.31864 -0.4218,-0.31158 -0.13167,0.0605 0.18064,0.23167 0.25009,0.49956 0.15434,0.59532 -0.0957,0.0958 -0.10175,0.17409 -0.0133,0.17409 0.0884,0 0.22602,-0.10557 0.30577,-0.2346 z m -1.05809,-0.58873 c -0.1,-0.16179 -0.0419,-0.38066 0.1292,-0.48638 0.23247,-0.14367 0.22127,-0.26668 -0.0444,-0.48714 -0.28368,-0.23544 -0.34647,-0.15066 -0.31122,0.42023 0.0505,0.81762 0.0596,0.84745 0.26028,0.84745 0.0814,0 0.0661,-0.13237 -0.0339,-0.29416 z m -34.600419,-2.21938 c -0.16283,0.4915 -0.149646,0.49621 0.185239,0.0661 0.425037,-0.54584 0.814007,-0.61497 0.620326,-0.11025 -0.07446,0.19403 0.0021,0.35234 0.17013,0.35181 0.168027,-5.4e-4 0.323507,-0.42718 0.345512,-0.94809 0.03079,-0.72892 -0.01064,-0.82521 -0.179842,-0.41795 -0.120917,0.29104 -0.228217,0.42529 -0.238445,0.29833 -0.01023,-0.12696 -0.19719,-0.0826 -0.415471,0.0985 -0.540011,0.44817 -0.500825,0.0833 0.06883,-0.64088 0.25614,-0.32562 0.613327,-0.54284 0.79375,-0.4827 0.372127,0.12404 0.421111,-0.17228 0.109586,-0.66292 -0.150027,-0.23629 -0.389987,-0.0845 -0.836716,0.52916 -0.3445,0.47326 -0.928096,1.27719 -1.296881,1.78651 l -0.670519,0.92604 0.759904,-0.66146 c 0.677407,-0.58965 0.740871,-0.60401 0.584594,-0.13229 z M 82.50341,123.47155 c 0.10404,-0.53647 -0.669847,-0.88803 -1.07123,-0.48665 -0.20828,0.20828 -0.192293,0.40443 0.0575,0.70541 0.41317,0.49784 0.894921,0.39388 1.013735,-0.21876 z m 54.03501,-0.99453 c 0.20151,-0.37653 0.1391,-0.61617 -0.26594,-1.02121 -0.64488,-0.64488 -1.28062,-0.45307 -1.50857,0.45517 -0.31226,1.24413 1.16023,1.71383 1.77451,0.56604 z m -1.33634,0.0251 c 0,-0.14552 0.11907,-0.26458 0.26459,-0.26458 0.14552,0 0.26458,-0.12609 0.26458,-0.2802 0,-0.15411 -0.11906,-0.20661 -0.26458,-0.11668 -0.14552,0.0899 -0.26459,0.0445 -0.26459,-0.10106 0,-0.44537 0.37886,-0.52435 0.72387,-0.15091 0.26105,0.28255 0.2439,0.43704 -0.085,0.76598 -0.47879,0.47879 -0.63883,0.51573 -0.63883,0.14745 z m -35.962527,-0.0776 c -0.151478,-0.39841 -0.108192,-0.89806 0.126068,-1.4552 0.357549,-0.85036 1.043619,-1.23615 0.725909,-0.40819 -0.116181,0.30275 -0.069,0.37847 0.1512,0.24242 0.23482,-0.14513 0.27474,0.002 0.14978,0.5519 -0.1635,0.71955 -0.1409,0.70978 0.56082,-0.24241 0.40215,-0.5457 0.83123,-0.99219 0.95351,-0.99219 0.30726,0 0.27279,-2.15833 -0.0423,-2.64583 -0.21118,-0.32678 -0.25719,-0.33068 -0.26053,-0.022 -0.002,0.20616 -0.0661,0.31274 -0.14202,0.23685 -0.0759,-0.0759 -0.0419,-0.39779 0.0756,-0.71533 0.20053,-0.54209 0.23285,-0.52408 0.52892,0.29469 0.29265,0.80931 0.39667,0.86985 1.44575,0.84142 0.79766,-0.0216 0.87729,0.002 0.27051,0.0797 -1.15062,0.14769 -1.10055,0.6076 0.0662,0.6076 0.63035,0 0.92604,0.12186 0.92604,0.38166 0,0.25674 0.36806,0.41481 1.12448,0.48294 0.73151,0.0659 0.43101,0.12037 -0.8599,0.15592 -1.96189,0.054 -3.42038,0.60576 -2.75036,1.04044 0.15937,0.1034 0.35775,0.36659 0.44085,0.58487 0.12033,0.31612 0.15532,0.30267 0.17196,-0.0661 0.0157,-0.3488 0.24933,-0.46302 0.94693,-0.46302 0.64676,0 0.92604,-0.11969 0.92604,-0.39687 0,-0.31971 0.41158,-0.39688 2.11667,-0.39688 1.23472,0 2.11666,-0.11024 2.11666,-0.26458 0,-0.14552 0.50602,-0.28538 1.12448,-0.31081 l 1.12448,-0.0462 -1.12448,-0.10128 c -0.61846,-0.0557 -1.12448,-0.2135 -1.12448,-0.35065 0,-0.13716 -0.47625,-0.24937 -1.05833,-0.24937 -0.76435,0 -1.05833,-0.11025 -1.05833,-0.39688 0,-0.3197 0.41157,-0.39687 2.11666,-0.39687 2.08139,0 2.11667,-0.011 2.11667,-0.66146 0,-0.48507 0.14111,-0.66146 0.52917,-0.66146 0.58773,0 0.71282,0.40109 0.19844,0.63629 -0.18191,0.0832 0.17528,0.11971 0.79375,0.0812 1.08091,-0.0673 1.48454,0.15146 0.79375,0.4302 -0.19091,0.077 -0.20825,0.14228 -0.041,0.15434 0.15935,0.0115 0.50013,-0.21162 0.7573,-0.49579 0.45147,-0.49887 0.44377,-0.52264 -0.22357,-0.69014 -0.80916,-0.20308 -0.93499,-0.90985 -0.162,-0.90985 0.29399,0 0.52917,0.17639 0.52917,0.39687 0,0.22049 0.23519,0.39688 0.52917,0.39688 0.31173,0 0.52916,0.17639 0.52916,0.42927 0,0.31342 0.0893,0.35519 0.33073,0.1548 0.18191,-0.15096 0.31381,-0.73109 0.29312,-1.28917 -0.0528,-1.42487 -0.0479,-1.41157 -0.52241,-1.41157 -0.31446,0 -0.38549,-0.15765 -0.2682,-0.59531 0.0877,-0.32742 0.16299,-0.83344 0.1672,-1.12448 0.0116,-0.79904 0.4102,-1.29548 0.82988,-1.03352 0.5594,0.34915 1.04379,0.35951 0.84735,0.0181 -0.63363,-1.10122 -1.22886,-1.74428 -1.47419,-1.59265 -0.17333,0.10712 -0.20828,0.0518 -0.0891,-0.1411 0.42086,-0.68098 -3.26087,-4.65337 -7.09563,-7.6558 -2.15923,-1.69058 -2.4009,-1.81421 -2.67606,-1.369 -0.0899,0.14552 -0.0176,0.26459 0.16078,0.26459 0.17836,0 0.25284,0.0714 0.16551,0.15878 -0.0873,0.0873 -0.29155,0.0767 -0.45382,-0.0236 -0.21672,-0.13394 -0.21685,-0.27655 -5.2e-4,-0.53721 0.22511,-0.27124 0.17398,-0.41938 -0.21695,-0.6286 -0.2813,-0.15055 -0.58665,-0.19854 -0.67854,-0.10664 -0.0919,0.0919 -0.16708,0.0282 -0.16708,-0.1416 0,-0.169777 -0.11906,-0.308684 -0.26459,-0.308684 -0.16268,0 -0.26458,1.311364 -0.26458,3.404924 0,5.00126 -0.88988,9.41808 -2.66139,13.20956 -0.777,1.66298 -1.03898,2.68344 -0.48941,1.90635 0.24948,-0.35278 0.26863,-0.35278 0.17233,0 -0.0596,0.21828 -0.24302,0.39687 -0.40764,0.39687 -0.16462,0 -0.722277,0.70241 -1.239238,1.56091 -0.884428,1.46874 -0.915868,1.59763 -0.53244,2.18281 0.518341,0.79109 0.713807,0.79821 0.416091,0.0152 z m 2.799107,-6.12665 c -0.10357,-0.26989 -0.02,-0.33463 0.28221,-0.21865 0.32138,0.12332 0.38661,0.0534 0.25941,-0.27806 -0.12444,-0.3243 -0.0263,-0.44281 0.36656,-0.44281 0.29506,0 0.46917,0.1089 0.38692,0.24199 -0.0823,0.13309 -0.009,0.28894 0.16352,0.34634 0.17219,0.0574 0.22544,0.24616 0.11833,0.41948 -0.27334,0.44226 -1.39975,0.39348 -1.57695,-0.0683 z m 4.23565,0.20701 c -0.33544,-0.33544 -0.17434,-0.61736 0.35277,-0.61736 0.29399,0 0.52917,0.17639 0.52917,0.39687 0,0.40281 -0.5597,0.54273 -0.88194,0.22049 z m -3.13642,-2.12102 c 0.191,-0.0764 0.4192,-0.067 0.50712,0.0209 0.0879,0.0879 -0.0683,0.15045 -0.34727,0.13896 -0.30822,-0.0127 -0.37091,-0.0754 -0.15985,-0.15985 z m 7.98711,-0.0686 c 0,-0.13715 -0.50601,-0.29494 -1.12448,-0.35065 -0.73192,-0.0659 -0.44822,-0.11741 0.81265,-0.1475 1.72189,-0.0411 1.89303,-0.002 1.54025,0.35065 -0.44093,0.44093 -1.22842,0.53549 -1.22842,0.1475 z m 2.11667,-0.1475 c 0,-0.27876 0.25592,-0.38615 0.85989,-0.36085 0.62184,0.0261 0.69509,0.0678 0.26459,0.1507 -0.32742,0.0631 -0.59532,0.22544 -0.59532,0.36084 0,0.1354 -0.14493,0.26021 -0.26458,0.24618 -0.15791,-0.0185 -0.26458,-0.17859 -0.26458,-0.39687 z m -8.98773,-1.85209 c 0,-0.14552 0.11541,-0.44317 0.25648,-0.66145 0.14106,-0.21828 0.25648,-0.27782 0.25648,-0.1323 0,0.14553 -0.11542,0.44318 -0.25648,0.66146 -0.14107,0.21828 -0.25648,0.27782 -0.25648,0.13229 z m 7.66481,-0.26458 c 0,-0.24694 0.24989,-0.39687 0.66146,-0.39687 0.41157,0 0.66146,0.14993 0.66146,0.39687 0,0.24695 -0.24989,0.39688 -0.66146,0.39688 -0.41157,0 -0.66146,-0.14993 -0.66146,-0.39688 z m -7.91661,-0.8158 c 0.0127,-0.30822 0.0754,-0.37092 0.15985,-0.15985 0.0764,0.191 0.067,0.4192 -0.0209,0.50712 -0.0879,0.0879 -0.15045,-0.0683 -0.13896,-0.34727 z m 11.77008,-0.1878 c 0.0994,-0.26093 0.2473,-0.40778 0.32877,-0.32632 0.0815,0.0815 1.6e-4,0.29496 -0.18066,0.47444 -0.2613,0.25936 -0.29169,0.22897 -0.14811,-0.14812 z m -10.01908,-0.82021 c -0.10826,-0.27549 -0.13451,-0.56322 -0.0583,-0.63941 0.24131,-0.24131 0.45364,0.15414 0.35252,0.65658 -0.0927,0.46046 -0.10682,0.45963 -0.2942,-0.0172 z m 5.19584,-0.45587 c 0.0928,-0.3469 0.17042,-0.83909 0.17241,-1.09376 0.002,-0.25466 0.12986,-0.46302 0.28417,-0.46302 0.41855,0 0.18171,1.92196 -0.25453,2.06549 -0.27651,0.091 -0.32791,-0.0384 -0.20205,-0.50871 z m 2.40557,0.2639 c -0.0642,-0.10382 0.008,-0.51695 0.16061,-0.91806 0.1525,-0.40111 0.21131,-0.91712 0.1307,-1.14668 -0.0806,-0.22957 0.0905,-0.11974 0.38019,0.24406 0.28972,0.36381 0.52002,0.78052 0.51176,0.92604 -0.008,0.14553 -0.075,0.11576 -0.14845,-0.0661 -0.14359,-0.35585 -0.62401,-0.46002 -0.61011,-0.13229 0.005,0.10914 0.18792,0.43598 0.40732,0.72631 0.34457,0.45598 0.43627,0.474 0.67319,0.13229 0.24312,-0.35064 0.26197,-0.35049 0.16598,10e-4 -0.10946,0.40111 -1.45166,0.58839 -1.67119,0.23318 z m -9.06694,-0.49776 c 0,-0.3638 0.0601,-0.51263 0.13345,-0.33073 0.0734,0.1819 0.0734,0.47956 0,0.66146 -0.0734,0.1819 -0.13345,0.0331 -0.13345,-0.33073 z m 8.68947,-0.91043 c 0,-0.22687 0.11907,-0.41249 0.26459,-0.41249 0.14552,0 0.26458,0.11204 0.26458,0.24897 0,0.13693 -0.11906,0.32255 -0.26458,0.41249 -0.14552,0.0899 -0.26459,-0.0221 -0.26459,-0.24897 z m -1.65819,-1.18342 c -0.092,-0.35179 0.0314,-0.54917 0.40413,-0.64665 0.37981,-0.0993 0.45416,-0.0579 0.25452,0.14171 -0.15511,0.15511 -0.21905,0.44611 -0.1421,0.64666 0.077,0.20054 0.022,0.36463 -0.12211,0.36463 -0.14411,0 -0.32161,-0.22786 -0.39444,-0.50635 z m -2.69185,-3.60311 c -0.54917,-0.41536 -1.05654,-0.52387 -0.84437,-0.18057 0.0707,0.11434 -0.0866,0.20789 -0.34953,0.20789 -0.2629,0 -0.45917,-0.12332 -0.43615,-0.27404 0.0696,-0.4556 0.43875,-0.93549 0.71966,-0.93549 0.14552,0 0.19629,0.11049 0.11283,0.24554 -0.0835,0.13504 0.0774,0.31825 0.35737,0.40712 0.28001,0.0889 0.65351,0.33557 0.82999,0.54821 0.40393,0.48671 0.26987,0.4803 -0.3898,-0.0187 z m -8.5814,18.3046 c -0.168768,-0.20336 -0.232528,-0.56342 -0.141688,-0.80015 0.09123,-0.23775 0.03406,-0.43041 -0.127726,-0.43041 -0.390316,0 -0.375338,1.13464 0.0202,1.53018 0.422224,0.42223 0.635494,0.16582 0.249214,-0.29962 z m 27.64716,-0.0537 c -0.0904,-0.23546 -0.046,-0.34167 0.10398,-0.24897 0.40397,0.24967 0.30909,-0.0299 -0.13532,-0.39875 -0.33562,-0.27854 -0.39688,-0.22228 -0.39688,0.36448 0,0.38162 0.13181,0.69385 0.2929,0.69385 0.16109,0 0.22198,-0.18477 0.13532,-0.41061 z m -7.65581,-2.54941 c -0.0845,-0.21107 -0.14715,-0.14838 -0.15985,0.15985 -0.0115,0.27891 0.0511,0.43518 0.13896,0.34726 0.0879,-0.0879 0.0973,-0.31612 0.0209,-0.50711 z m -0.47381,-1.7186 c -0.1902,-0.55546 -0.35597,-1.06945 -0.36839,-1.14221 -0.062,-0.36344 -0.76318,-2.31092 -0.9893,-2.74772 -0.21159,-0.40873 -0.30396,-0.43261 -0.51168,-0.1323 -0.18364,0.26551 -0.20978,0.21015 -0.0949,-0.20095 0.16647,-0.59556 -0.50931,-1.53705 -0.92074,-1.28277 -0.12373,0.0765 -0.30095,0.0161 -0.39382,-0.13418 -0.32864,-0.53174 -0.54559,-0.0255 -0.44429,1.03667 0.0921,0.96633 0.16369,1.0609 0.70062,0.92614 0.71358,-0.1791 1.06901,0.4661 0.66876,1.21397 -0.42032,0.78537 -0.31537,1.29215 0.25863,1.24891 0.62699,-0.0472 0.91391,-0.62144 0.40761,-0.81573 -0.21727,-0.0834 -0.30223,-0.35752 -0.21462,-0.69253 0.13652,-0.52204 0.1677,-0.51137 0.53237,0.18226 0.21305,0.40522 0.43121,0.95464 0.48479,1.22093 0.0536,0.26628 0.17472,0.72768 0.26918,1.02532 0.11459,0.36102 0.0743,0.4809 -0.12117,0.36012 -0.16111,-0.0996 -0.29293,-0.41214 -0.29293,-0.69459 0,-0.28245 -0.11906,-0.51355 -0.26458,-0.51355 -0.14552,0 -0.2608,0.20836 -0.25617,0.46302 0.0113,0.61913 0.6858,1.48181 1.00459,1.28479 0.13996,-0.0865 0.32928,0.0377 0.42071,0.27595 0.34248,0.89249 0.45696,0.087 0.1253,-0.88155 z m -25.657242,-0.72283 c 0.718832,-0.76516 0.574505,-1.49833 -0.397337,-2.01845 -0.827612,-0.44292 -1.449892,-0.12701 -1.825144,0.92657 -0.220525,0.61915 -0.166742,0.8028 0.360041,1.22936 0.811278,0.65693 1.138848,0.63275 1.86244,-0.13748 z m -1.566353,-0.16689 c -0.309154,-0.2092 -0.250673,-0.24607 0.264583,-0.16681 0.363802,0.056 0.524849,0.0532 0.357882,-0.006 -0.166967,-0.0593 -0.35899,-0.31979 -0.426719,-0.57878 -0.09745,-0.37264 0.03921,-0.4709 0.65491,-0.4709 0.630298,0 0.692744,0.0477 0.328829,0.2514 -0.338396,0.18938 -0.367754,0.30175 -0.118999,0.45549 0.375863,0.23229 0.127347,0.79448 -0.348497,0.78836 -0.173313,-0.002 -0.493708,-0.1249 -0.711989,-0.27262 z m 36.899725,-1.56475 c 0.61467,-0.67919 0.36515,-1.6761 -0.5205,-2.07963 -1.30356,-0.59394 -2.39714,0.73665 -1.60236,1.94964 0.51616,0.78775 1.47449,0.84643 2.12286,0.12999 z m -1.76588,-0.3443 c -0.23369,-0.16813 -0.17447,-0.19098 0.18803,-0.0725 0.42448,0.13872 0.46374,0.10702 0.19844,-0.16024 -0.47215,-0.47565 -0.40899,-0.75651 0.17013,-0.75651 0.27547,0 0.56939,0.17859 0.65315,0.39687 0.0838,0.21828 0.0299,0.39688 -0.1196,0.39688 -0.14954,0 -0.21057,0.0992 -0.13562,0.22048 0.1848,0.29902 -0.53023,0.28032 -0.95453,-0.025 z m -29.348594,-6.20796 c 0.336925,-0.60205 -0.09206,-1.3959 -0.75433,-1.3959 -0.668537,0 -1.094319,0.76847 -0.765844,1.38223 0.320672,0.59918 1.188139,0.60698 1.520174,0.0137 z"
         id="path19" /><path
         style="fill:#f97316;fill-opacity:1;fill-rule:evenodd"
         d="m -53.974998,148.43125 v -158.75 H 104.775 263.525 v 158.75 158.75 H 104.775 -53.974998 Z M 123.85875,177.0724 c 0.33589,-0.4283 0.32344,-0.43392 -0.16604,-0.0749 -0.29104,0.21348 -0.57878,0.42184 -0.63941,0.46302 -0.0606,0.0412 0.0141,0.0749 0.16604,0.0749 0.15196,0 0.43969,-0.20836 0.63941,-0.46302 z m 11.8725,-0.59532 c 0.15576,-0.29104 0.22367,-0.52916 0.15091,-0.52916 -0.0728,0 -0.25973,0.23812 -0.41549,0.52916 -0.15576,0.29104 -0.22367,0.52917 -0.15091,0.52917 0.0728,0 0.25973,-0.23813 0.41549,-0.52917 z m -17.91774,-1.69691 c 0.41733,-0.31661 0.42328,-0.3754 0.0524,-0.51772 -0.23012,-0.0883 -0.35017,-0.0502 -0.26679,0.0847 0.0834,0.13491 -0.0593,0.36805 -0.31699,0.51809 -0.25772,0.15004 -0.34952,0.27263 -0.204,0.27243 0.14552,-2.1e-4 0.47644,-0.1611 0.73538,-0.35754 z m 3.72791,-2.57675 c 0.57203,-0.41438 0.96083,-0.75342 0.864,-0.75342 -0.21789,0 -3.07834,1.88738 -3.07834,2.03114 0,0.1663 1.08593,-0.46031 2.21434,-1.27772 z m -25.587023,0.23877 c -0.0734,-0.1819 -0.133452,-0.0331 -0.133452,0.33073 0,0.3638 0.06005,0.51263 0.133452,0.33073 0.0734,-0.18191 0.0734,-0.47956 0,-0.66146 z m -6.609072,-0.51263 c -0.08446,-0.21107 -0.147156,-0.14838 -0.159852,0.15985 -0.01149,0.27891 0.05105,0.43518 0.138964,0.34726 0.08792,-0.0879 0.09732,-0.31612 0.02089,-0.50711 z m 48.535425,-0.0209 c -0.26131,-0.25936 -0.2917,-0.22897 -0.14811,0.14811 0.0994,0.26094 0.2473,0.40778 0.32876,0.32632 0.0815,-0.0815 1.7e-4,-0.29495 -0.18065,-0.47443 z m -5.98596,-0.98778 c 0.26339,-0.29104 0.41936,-0.52916 0.3466,-0.52916 -0.0728,0 -0.34779,0.23812 -0.61118,0.52916 -0.26339,0.29104 -0.41936,0.52917 -0.3466,0.52917 0.0728,0 0.34779,-0.23813 0.61118,-0.52917 z m -8.73312,0.003 c 0.0927,-0.14998 -0.0135,-0.19433 -0.24897,-0.10398 -0.45837,0.17589 -0.54223,0.36554 -0.16165,0.36554 0.13694,0 0.32171,-0.1177 0.41062,-0.26156 z m 1.72166,-1.23339 c 0,-0.19139 -1.01969,0.42463 -1.20846,0.73006 -0.0988,0.15984 0.13271,0.086 0.51443,-0.16414 0.38172,-0.25011 0.69403,-0.50478 0.69403,-0.56592 z m -27.649344,-0.26675 c 0.05071,-0.26799 0.105091,-0.60632 0.120853,-0.75185 0.01576,-0.14552 0.203466,-0.0335 0.417119,0.24901 0.213653,0.28248 0.38846,0.39453 0.38846,0.24901 0,-0.14552 -0.159445,-0.48264 -0.354323,-0.74915 -0.342495,-0.46839 -0.360948,-0.46787 -0.55279,0.0156 -0.286918,0.72304 -0.477164,1.84032 -0.279747,1.6429 0.09253,-0.0925 0.209721,-0.3875 0.260428,-0.6555 z m 37.174344,0.0743 c 0,-0.0549 -0.20835,-0.2633 -0.46302,-0.46302 -0.41964,-0.32911 -0.429,-0.31975 -0.0999,0.0999 0.34564,0.44072 0.56291,0.58088 0.56291,0.36312 z m -8.20208,-0.81068 c 0,-0.054 -0.23812,-0.036 -0.52917,0.0402 -0.29104,0.0761 -0.52916,0.24775 -0.52916,0.38142 0,0.13426 0.23682,0.11629 0.52916,-0.0402 0.29105,-0.15576 0.52917,-0.3274 0.52917,-0.38141 z m -35.89203,-1.08521 c -0.08617,-0.22456 -0.213419,-0.35154 -0.282774,-0.28219 -0.06936,0.0694 -0.04762,0.25309 0.0483,0.40829 0.260892,0.42213 0.41338,0.34012 0.234473,-0.1261 z m 7.758004,0.0231 c 0,-0.21188 -0.101161,-0.32272 -0.224802,-0.2463 -0.123641,0.0764 -0.156302,0.24977 -0.07258,0.38524 0.213949,0.34617 0.297382,0.30719 0.297382,-0.13894 z M 127.36962,167.79 c 0.075,-0.12127 -0.0318,-0.22049 -0.23733,-0.22049 -0.20548,0 -0.31227,0.0992 -0.23733,0.22049 0.075,0.12127 0.18175,0.22049 0.23733,0.22049 0.0556,0 0.16239,-0.0992 0.23733,-0.22049 z m -28.812327,-0.83785 c -0.09237,-0.29104 -0.05079,-0.52916 0.09241,-0.52916 0.1432,0 0.379949,-0.32743 0.526108,-0.72761 0.146159,-0.40018 0.275143,-0.57877 0.286632,-0.39687 0.01149,0.1819 0.154529,0.33073 0.317868,0.33073 0.207943,0 0.214502,-0.0994 0.02188,-0.33148 -0.194956,-0.23491 -0.15788,-0.48543 0.12726,-0.8599 0.396799,-0.5211 0.400009,-0.52049 0.231949,0.0446 -0.0937,0.31518 -0.0436,0.65145 0.11148,0.74727 0.15504,0.0958 0.26485,0.0761 0.24401,-0.0439 -0.1181,-0.67984 0.0624,-1.18631 0.3795,-1.06464 0.1951,0.0749 0.52252,0.0317 0.7276,-0.0959 0.29679,-0.18468 0.30881,-0.33546 0.0589,-0.73888 -0.26558,-0.42869 -0.20801,-0.60332 0.37339,-1.13255 0.37806,-0.34414 0.58912,-0.45664 0.46902,-0.25001 -0.16175,0.2783 -0.10642,0.33273 0.21345,0.20999 0.23749,-0.0911 0.50218,-0.0518 0.58818,0.0873 0.22607,0.36579 0.89907,0.31066 1.31767,-0.10794 0.23663,-0.23663 0.27133,-0.45061 0.10073,-0.62121 -0.3257,-0.3257 0.23823,-1.66366 0.7012,-1.66366 0.17711,0 0.46362,0.17063 0.63669,0.37917 0.24721,0.29787 0.21775,0.52712 -0.13742,1.06917 -0.36354,0.55483 -0.39404,0.81747 -0.15567,1.34063 0.38255,0.83959 0.99813,0.83408 1.21019,-0.0108 l 0.16601,-0.66146 h 5.15434 c 4.40524,0 5.15433,-0.0577 5.15433,-0.39688 0,-0.3197 0.41158,-0.39687 2.11667,-0.39687 1.70509,0 2.11666,-0.0772 2.11666,-0.39688 0,-0.3197 0.41158,-0.39687 2.11667,-0.39687 1.23472,0 2.11667,-0.11024 2.11667,-0.26458 0,-0.14552 0.65484,-0.26459 1.45521,-0.26459 1.11713,0 1.4552,-0.0922 1.4552,-0.39687 0,-0.21828 -0.17859,-0.39688 -0.39687,-0.39688 -0.21828,0 -0.39688,0.11907 -0.39688,0.26459 0,0.14552 -0.47625,0.26458 -1.05833,0.26458 -0.58208,0 -1.05833,-0.11906 -1.05833,-0.26458 0,-0.14552 0.47625,-0.26459 1.05833,-0.26459 0.76435,0 1.05833,-0.11024 1.05833,-0.39687 0,-0.31599 0.3878,-0.39688 1.90266,-0.39688 1.72975,0 1.85598,0.0353 1.38906,0.38846 -0.50074,0.37875 -0.4987,0.38867 0.0817,0.39688 0.38005,0.005 0.60204,0.17584 0.61391,0.47143 0.0158,0.39371 0.0509,0.38381 0.23427,-0.0661 0.19846,-0.48695 0.23089,-0.47126 0.4065,0.19661 0.10496,0.39917 0.29752,0.65984 0.42791,0.57925 0.13601,-0.084 0.12,-0.36526 -0.0375,-0.65963 -0.28771,-0.53759 -0.0942,-0.65416 0.48058,-0.28946 0.19292,0.12241 0.26949,0.43503 0.17722,0.72355 -0.27452,0.85837 0.9943,-0.77182 1.70639,-2.19238 0.34969,-0.6976 0.80305,-1.59602 1.00746,-1.99651 0.20442,-0.40048 0.28687,-0.86536 0.18322,-1.03306 -0.10792,-0.17463 -0.0729,-0.23351 0.082,-0.1378 0.27026,0.16703 1.10691,-2.52618 1.65389,-5.32391 0.40203,-2.05635 0.33423,-6.55697 -0.13615,-9.03659 -0.45413,-2.394 -1.6182,-5.87888 -2.79748,-8.37482 -1.19489,-2.529 -4.19638,-6.82162 -6.21053,-8.88209 l -1.82651,-1.86851 -0.17052,3.80184 c -0.37479,8.35646 -3.61028,16.20236 -9.35448,22.68411 -0.43657,0.49261 -0.75407,1.02953 -0.70556,1.19316 0.0485,0.16362 -0.002,0.2071 -0.11266,0.0966 -0.25524,-0.25524 -1.46377,0.8594 -1.27063,1.17191 0.0791,0.12798 0.025,0.19997 -0.12016,0.15998 -0.14518,-0.04 -1.73161,1.14318 -3.52539,2.62926 -1.79379,1.48608 -4.00845,3.30851 -4.92146,4.04985 -0.95245,0.77336 -1.58349,1.47171 -1.48047,1.6384 0.11273,0.18241 0.0567,0.21458 -0.1506,0.0865 -0.40923,-0.25292 -2.71277,1.93252 -2.47585,2.34892 0.0898,0.1578 0.0619,0.19471 -0.062,0.082 -0.34666,-0.3153 -2.75628,2.18175 -2.57108,2.66437 0.0969,0.25257 0.0465,0.33802 -0.13374,0.22663 -0.29359,-0.18145 -1.388113,1.12287 -1.388113,1.65419 0,0.15944 -0.106324,0.28989 -0.236276,0.28989 -0.334479,0 -0.569324,0.71959 -0.388571,1.19062 0.227346,0.59246 0.422123,0.47943 0.227972,-0.13229 z m 5.089407,-5.97899 c -0.087,-0.087 -0.0929,-0.32815 -0.0132,-0.53592 0.11063,-0.28831 0.23092,-0.30641 0.50802,-0.0764 0.19968,0.16572 0.29781,0.40688 0.21807,0.53592 -0.16738,0.27082 -0.48451,0.30483 -0.7129,0.0764 z m 29.90174,-1.9881 c -0.25466,-0.14371 -0.4612,-0.4042 -0.45897,-0.57887 0.003,-0.2116 0.0813,-0.19554 0.23566,0.0481 0.1832,0.28926 0.2674,0.2529 0.40289,-0.174 0.0942,-0.29682 0.34011,-0.60446 0.54644,-0.68364 0.27634,-0.10604 0.3608,0.055 0.32066,0.61124 -0.03,0.41536 -0.13362,0.70652 -0.23033,0.64703 -0.0967,-0.0595 -0.21578,0.004 -0.26459,0.14162 -0.0548,0.1543 -0.26573,0.14991 -0.55176,-0.0115 z m -27.16639,-0.34373 c -0.2118,-0.2552 -0.22205,-0.42757 -0.0324,-0.54478 0.15259,-0.0943 0.28654,-0.13467 0.29768,-0.0897 0.11877,0.47968 0.18219,1.0078 0.12103,1.0078 -0.0421,0 -0.2159,-0.16799 -0.38631,-0.37332 z m 21.87472,-0.86024 c 0.1819,-0.0734 0.47956,-0.0734 0.66146,0 0.1819,0.0734 -0.21185,0.13345 -0.33073,0.13345 -0.11888,0 -0.51263,-0.06 -0.33073,-0.13345 z m 6.53005,-0.7558 c -0.0976,-0.52015 -0.1036,-1.01955 -0.0134,-1.10978 0.0902,-0.0902 0.16405,0.12964 0.16405,0.48859 0,0.35895 0.12944,0.78207 0.28764,0.94027 0.1965,0.1965 0.20073,0.34135 0.0134,0.45715 -0.16047,0.0992 -0.34789,-0.2229 -0.45169,-0.77623 z m -2.32625,-1.05335 c 0.0838,-0.21828 0.19909,-0.39687 0.25628,-0.39687 0.0572,0 0.10398,0.17859 0.10398,0.39687 0,0.21829 -0.11532,0.39688 -0.25627,0.39688 -0.14096,0 -0.18775,-0.17859 -0.10399,-0.39688 z m 4.25693,-3.89033 c -0.0747,-0.47969 -0.0387,-0.97597 0.0798,-1.10284 0.11854,-0.12688 0.14633,-0.42453 0.0617,-0.66146 -0.0846,-0.23693 -0.0614,-0.34741 0.0516,-0.24552 0.23384,0.21094 0.30729,2.51729 0.0872,2.73741 -0.0795,0.0795 -0.20566,-0.2479 -0.28032,-0.72759 z m -64.752083,14.15291 c -0.288292,-0.44961 -0.295758,-0.44903 -0.151018,0.0117 0.08375,0.26656 0.161669,0.62375 0.173157,0.79375 0.01508,0.22308 0.0571,0.21984 0.151018,-0.0117 0.07157,-0.17642 -0.0064,-0.53361 -0.173157,-0.79375 z m 18.438242,0.13886 c -0.08446,-0.21107 -0.147157,-0.14838 -0.159853,0.15985 -0.01149,0.27891 0.05105,0.43518 0.138965,0.34726 0.08792,-0.0879 0.09732,-0.31612 0.02089,-0.50711 z M 129.11667,166.104 c 0,-0.1054 -0.26789,-0.32145 -0.59531,-0.48012 -0.57167,-0.27703 -0.57492,-0.27214 -0.0817,0.12298 0.44718,0.35826 0.39948,0.51551 -0.13876,0.4575 -0.0849,-0.009 -0.15434,0.14397 -0.15434,0.34025 0,0.27983 0.10472,0.29148 0.48507,0.0539 0.26679,-0.16661 0.48507,-0.38917 0.48507,-0.49456 z m -29.452595,0.005 c -0.08446,-0.21106 -0.147156,-0.14837 -0.159852,0.15986 -0.01149,0.27891 0.05105,0.43518 0.138964,0.34726 0.08792,-0.0879 0.09732,-0.31612 0.02089,-0.50712 z m 36.365505,0.11576 c 0.32911,-0.41965 0.31975,-0.429 -0.0999,-0.0999 -0.25466,0.19972 -0.46302,0.40808 -0.46302,0.46302 0,0.21777 0.21727,0.0776 0.56291,-0.36312 z m -43.654648,-3.41963 c -0.02716,-0.17093 0.09123,-0.39769 0.2631,-0.5039 0.208945,-0.12914 0.247495,-0.07 0.116349,0.17848 -0.107873,0.20439 0.04968,0.074 0.350111,-0.28985 0.300434,-0.3638 0.548891,-0.75723 0.552126,-0.87428 0.0189,-0.68381 4.440987,-5.28595 7.215782,-7.5096 0.83674,-0.67055 1.52135,-1.32068 1.52135,-1.44473 0,-0.12405 0.13492,-0.22555 0.29981,-0.22555 0.45541,0 5.93871,-4.70866 8.7019,-7.47256 6.74565,-6.74737 9.48251,-12.98189 9.19612,-20.94861 -0.1117,-3.10725 -0.22427,-3.75713 -1.101,-6.35623 -1.63616,-4.85046 -3.98524,-8.47271 -7.92253,-12.21642 -2.18138,-2.07412 -6.98107,-5.662192 -7.56712,-5.656893 -0.0836,7.56e-4 -0.16154,1.816463 -0.17325,4.034893 -0.0398,7.54127 -1.72716,12.70239 -6.361633,19.458 -1.355643,1.97611 -3.351717,4.1455 -8.669321,9.42206 -3.7995,3.77018 -6.875467,6.96395 -6.835482,7.09727 0.03999,0.13332 -0.03769,0.17417 -0.17262,0.0908 -0.352257,-0.21771 -3.838851,3.59987 -5.398017,5.91045 -3.635319,5.38731 -5.640306,12.33473 -4.702516,16.29454 0.167707,0.70814 0.210581,0.6284 0.397518,-0.7393 0.115245,-0.84317 0.13282,-2.01279 0.03906,-2.59915 -0.102902,-0.64352 -0.07166,-1.00505 0.07881,-0.91205 0.315894,0.19523 0.648402,-1.26221 0.438703,-1.92292 -0.08672,-0.27322 -0.0436,-0.78191 0.0958,-1.13042 l 0.253472,-0.63366 0.0481,0.66146 c 0.02646,0.3638 0.034,0.75075 0.01677,0.85989 -0.01723,0.10914 0.444918,0.19844 1.027001,0.19844 0.582083,0 1.058333,0.11906 1.058333,0.26458 0,0.14552 0.47625,0.26459 1.058334,0.26459 0.999537,0 1.058333,0.0441 1.058333,0.79375 0,0.74965 0.0588,0.79375 1.058333,0.79375 0.582084,0 1.058334,0.11906 1.058334,0.26458 0,0.14552 0.47625,0.26458 1.058333,0.26458 0.999537,0 1.058333,0.0441 1.058333,0.79375 0,0.74966 0.0588,0.79375 1.058334,0.79375 0.582083,0 1.058333,0.11907 1.058333,0.26459 0,0.15434 0.881944,0.26458 2.116667,0.26458 1.705092,0 2.116666,0.0772 2.116666,0.39687 0,0.21829 0.119063,0.39688 0.264584,0.39688 0.14552,0 0.264583,-0.17859 0.264583,-0.39688 0,-0.29379 0.292047,-0.39145 1.124479,-0.37598 0.618464,0.0115 0.975651,0.0809 0.79375,0.15434 -0.400905,0.16177 -0.440379,0.61852 -0.05345,0.61852 0.152501,0 0.569755,0.32742 0.927231,0.7276 0.504688,0.56498 0.609051,0.60934 0.466937,0.19844 -0.160156,-0.46306 -0.129044,-0.48529 0.249054,-0.17794 0.445323,0.36199 0.361123,0.86534 -0.37477,2.24037 -0.286538,0.5354 -0.316814,0.54052 -0.478062,0.0808 -0.09468,-0.26992 -0.172151,0.14162 -0.172151,0.91455 v 1.40532 l 0.785232,-1.7024 c 0.431879,-0.93633 0.763012,-1.84226 0.735852,-2.01318 z m 0.135077,-1.14443 c 0.166493,-0.21828 0.274769,-0.83289 0.240612,-1.36579 -0.0493,-0.76912 0.0053,-0.9015 0.264828,-0.64198 0.413736,0.41374 0.194902,1.62108 -0.374435,2.06583 -0.37038,0.28933 -0.389512,0.28085 -0.131005,-0.0581 z m -20.728638,-1.85209 c 0,-0.80036 0.0496,-1.12778 0.110223,-0.7276 0.06062,0.40018 0.06062,1.05502 0,1.45521 -0.06062,0.40018 -0.110223,0.0728 -0.110223,-0.72761 z m 21.881131,0.16469 c 0,-0.0549 0.181319,-0.25038 0.402931,-0.4343 0.336907,-0.2796 0.375624,-0.26324 0.236276,0.0999 -0.142318,0.37087 -0.639207,0.63082 -0.639207,0.3344 z m -11.90625,-0.69385 c 0,-0.14552 0.416718,-0.26459 0.926041,-0.26459 0.509323,0 0.926042,0.11907 0.926042,0.26459 0,0.14552 -0.416719,0.26458 -0.926042,0.26458 -0.509323,0 -0.926041,-0.11906 -0.926041,-0.26458 z m 11.592057,-0.18074 c 0.190996,-0.0764 0.419199,-0.067 0.507118,0.0209 0.08792,0.0879 -0.06835,0.15046 -0.347266,0.13897 -0.308224,-0.0127 -0.370919,-0.0754 -0.159852,-0.15985 z m 1.637109,-0.74531 c 0.341775,-0.3638 0.749482,-0.66131 0.906017,-0.66113 0.156534,1.8e-4 -0.06133,0.29783 -0.484149,0.66146 -0.989172,0.85069 -1.221189,0.85051 -0.421868,-3.3e-4 z m -0.79375,-0.0942 c 0,-0.42993 1.348178,-1.36188 1.953911,-1.35067 0.4535,0.008 0.406921,0.0769 -0.245615,0.36113 -0.442885,0.19292 -1.008432,0.55395 -1.256771,0.80229 -0.248339,0.24834 -0.451525,0.3326 -0.451525,0.18725 z m -22.056097,-1.7579 c 0.08376,-0.21828 0.199088,-0.39687 0.25628,-0.39687 0.05719,0 0.103984,0.17859 0.103984,0.39687 0,0.21828 -0.115326,0.39688 -0.25628,0.39688 -0.140953,0 -0.187746,-0.1786 -0.103984,-0.39688 z m 5.387347,0 c 0,-0.28454 0.290382,-0.39687 1.025937,-0.39687 0.589165,0 1.166162,0.16896 1.355313,0.39687 0.285489,0.34399 0.148788,0.39688 -1.025936,0.39688 -1.028335,0 -1.355314,-0.0958 -1.355314,-0.39688 z m 19.314584,0.0324 c 0,-0.0549 0.208359,-0.2633 0.46302,-0.46302 0.419644,-0.32911 0.429003,-0.31975 0.0999,0.0999 -0.345643,0.44073 -0.562915,0.58089 -0.562915,0.36313 z m -22.4282,-4.66261 c 0,-0.50932 0.05445,-0.71768 0.121,-0.46302 0.06655,0.25466 0.06655,0.67138 0,0.92604 -0.06655,0.25467 -0.121,0.0463 -0.121,-0.46302 z m -0.834246,0.11025 c 0.0127,-0.30823 0.07539,-0.37092 0.159853,-0.15986 0.07643,0.191 0.06703,0.4192 -0.02089,0.50712 -0.08792,0.0879 -0.150453,-0.0684 -0.138965,-0.34726 z m 29.217444,-1.16555 c -0.0927,-0.14998 0.0135,-0.19434 0.24897,-0.10398 0.45837,0.17589 0.54223,0.36553 0.16165,0.36553 -0.13694,0 -0.32171,-0.1177 -0.41062,-0.26155 z m -30.909675,13.97028 c -0.08446,-0.21107 -0.147156,-0.14838 -0.159852,0.15985 -0.01149,0.27891 0.05105,0.43518 0.138964,0.34726 0.08792,-0.0879 0.09732,-0.31612 0.02089,-0.50711 z m 59.131945,-0.73356 c 0.33849,-0.43074 1.0023,-1.23441 1.47513,-1.78594 0.47283,-0.55152 0.85616,-1.18136 0.85185,-1.39964 -0.006,-0.30882 -0.0684,-0.29291 -0.28064,0.0717 -0.15004,0.25772 -0.38318,0.40036 -0.51809,0.31698 -0.13491,-0.0834 -0.17901,0.0211 -0.098,0.23226 0.081,0.21112 0.0201,0.46246 -0.13532,0.55852 -0.15596,0.0964 -0.28263,-0.0172 -0.28263,-0.25343 0,-0.24091 -0.12577,-0.35037 -0.28763,-0.25034 -0.19587,0.12105 -0.20138,0.26404 -0.0173,0.44815 0.26756,0.26756 -0.16753,1.18684 -0.94845,2.0039 -0.27696,0.28978 -0.33485,0.28978 -0.33821,0 -0.003,-0.25823 -0.0711,-0.24588 -0.26053,0.0473 -0.68247,1.05604 0.0113,1.06479 0.83977,0.0106 z m -40.404059,-0.76468 c -0.149082,-0.15694 -0.652376,0.24081 -0.652376,0.51556 0,0.14267 0.166585,0.10588 0.370189,-0.0818 0.203604,-0.18764 0.330588,-0.38285 0.282187,-0.4338 z m 47.766369,-0.33547 c 0,-0.14552 -0.11906,-0.191 -0.26458,-0.10106 -0.14552,0.0899 -0.26458,0.28259 -0.26458,0.42811 0,0.14552 0.11906,0.19099 0.26458,0.10106 0.14552,-0.0899 0.26458,-0.28259 0.26458,-0.42811 z m 2.03283,-0.0184 c -0.0845,-0.21106 -0.14716,-0.14837 -0.15985,0.15986 -0.0115,0.27891 0.051,0.43518 0.13896,0.34726 0.0879,-0.0879 0.0973,-0.31612 0.0209,-0.50712 z m -37.86799,-0.45387 c -0.12262,-0.19839 -0.2836,-0.1853 -0.52975,0.0431 -0.25533,0.23691 -0.27044,0.38018 -0.0544,0.51551 0.37998,0.23799 0.81772,-0.18063 0.58412,-0.55861 z m 27.89766,-0.43299 c 0,-0.78906 -0.0584,-0.88277 -0.3708,-0.59531 -0.20395,0.18764 -0.26348,0.38085 -0.13229,0.42935 0.13118,0.0485 0.23851,0.3164 0.23851,0.59531 0,0.27892 0.0595,0.50712 0.13229,0.50712 0.0728,0 0.13229,-0.42141 0.13229,-0.93647 z m 0.57768,-0.17919 c -0.18986,-0.18985 -0.31309,-0.20547 -0.31309,-0.0397 0,0.35316 0.3129,0.66606 0.48948,0.48947 0.0752,-0.0752 -0.004,-0.27759 -0.17639,-0.44979 z m 8.6669,-1.1049 c 0.27523,-0.5977 0.51045,-0.87837 0.52271,-0.62371 0.0123,0.25466 0.14136,0.46302 0.28688,0.46302 0.35416,0 0.32088,-0.30066 -0.0937,-0.84613 -0.30314,-0.39888 -0.43721,-0.26791 -1.19571,1.16808 -0.46986,0.88953 -0.66672,1.46166 -0.43747,1.2714 0.22925,-0.19026 0.64201,-0.83496 0.91725,-1.43266 z m -52.305513,0.9755 c -0.327422,-0.0631 -0.863203,-0.0631 -1.190625,0 -0.327422,0.0631 -0.05953,0.11467 0.595313,0.11467 0.654844,0 0.922734,-0.0516 0.595312,-0.11467 z m 44.576783,-1.56062 c -0.0879,-0.0879 -0.31613,-0.0973 -0.50712,-0.0209 -0.21107,0.0845 -0.14837,0.14716 0.15985,0.15985 0.27892,0.0115 0.43519,-0.051 0.34727,-0.13896 z m 8.78431,-1.4938 c -0.0151,-0.70023 -0.0575,-0.76164 -0.22797,-0.33073 -0.11516,0.29105 -0.15358,0.678 -0.0854,0.8599 0.21277,0.56757 0.3327,0.36506 0.31336,-0.52917 z m -67.804093,-1.05833 c -0.0734,-0.1819 -0.133452,-0.0331 -0.133452,0.33073 0,0.3638 0.06005,0.51263 0.133452,0.33073 0.0734,-0.1819 0.0734,-0.47956 0,-0.66146 z m 3.595084,-0.12058 c -0.327422,-0.0631 -0.863203,-0.0631 -1.190625,0 -0.327422,0.0631 -0.05953,0.11466 0.595312,0.11466 0.654844,0 0.922735,-0.0516 0.595313,-0.11466 z m 5.971527,-34.14566 c 0.06353,-0.44529 -0.04769,-0.59261 -0.447406,-0.59261 -0.633283,0 -0.933867,0.40021 -0.719721,0.95826 0.226325,0.5898 1.068454,0.32596 1.167127,-0.36565 z m 53.871552,-0.47922 c 0.55875,-0.55875 0.52345,-0.99227 -0.12888,-1.58262 -0.65056,-0.58874 -1.38901,-0.27379 -1.52618,0.65091 -0.1697,1.14408 0.86194,1.72483 1.65506,0.93171 z m -42.270126,-5.83242 c 0.406257,-0.62003 0.412847,-0.76441 0.0634,-1.38907 -0.474214,-0.84769 -1.427616,-1.03386 -2.113904,-0.41278 -0.623354,0.56412 -0.65111,1.36723 -0.06947,2.00994 0.634913,0.70157 1.58504,0.60831 2.119967,-0.20809 z m 35.126376,-1.57591 c 0.22868,-0.22868 0.41577,-0.6454 0.41577,-0.92605 0,-0.60584 -0.89316,-1.5686 -1.4552,-1.5686 -0.53327,0 -1.45521,0.95065 -1.45521,1.50052 0,1.1735 1.65554,1.83323 2.49464,0.99413 z m -31.078951,-6.71059 c 0.39281,-0.73397 0.34191,-1.0207 -0.236107,-1.33005 -0.98867,-0.52912 -1.860946,0.34316 -1.331826,1.33183 0.351565,0.6569 1.215943,0.65592 1.567933,-0.002 z"
         id="path18" /><path
         style="fill:#f97316;fill-opacity:1"
         d="m -53.974998,148.43125 v -158.75 H 104.775 263.525 v 158.75 158.75 H 104.775 -53.974998 Z m 167.211948,42.96742 c 1.35838,-0.23334 3.13554,-0.65606 3.94923,-0.93938 0.8137,-0.28332 1.86945,-0.63462 2.34612,-0.78068 0.47666,-0.14606 0.7979,-0.37682 0.71386,-0.5128 -0.0841,-0.13599 0.0199,-0.18097 0.23102,-0.1 0.85838,0.32939 7.86496,-3.9607 7.65047,-4.68434 -0.0346,-0.11686 0.0844,-0.16052 0.26459,-0.097 0.4606,0.16232 1.85604,-1.12477 1.62491,-1.49875 -0.10696,-0.17305 -0.073,-0.23363 0.0784,-0.14003 0.51749,0.31982 4.47242,-4.20415 6.20225,-7.09465 3.02567,-5.05579 4.24268,-9.35647 4.56423,-16.12902 l 0.12511,-2.63528 -0.59038,1.45259 c -2.82645,6.95435 -9.45821,14.22437 -17.23322,18.89181 -2.92016,1.75301 -3.60218,2.25785 -3.42895,2.53814 0.082,0.13273 -0.0207,0.17614 -0.22835,0.0965 -0.48868,-0.18753 -4.27314,2.3846 -6.72341,4.56959 -1.82241,1.62511 -1.9082,1.75336 -1.79212,2.67897 0.086,0.686 0.047,0.85533 -0.13243,0.57527 -0.16928,-0.26414 -0.2557,-0.28627 -0.25839,-0.0661 -0.002,0.1819 -0.12586,0.33073 -0.27474,0.33073 -0.14887,0 -0.0756,-0.29766 0.16272,-0.66146 0.23838,-0.3638 0.33042,-0.65772 0.20454,-0.65315 -0.45459,0.0165 -2.02604,2.57826 -2.63233,4.29117 l -0.35119,0.99219 h 1.52914 c 0.84103,0 2.64054,-0.19092 3.99892,-0.42425 z m -3.74906,-0.0211 c 0.191,-0.0764 0.4192,-0.067 0.50712,0.0209 0.0879,0.0879 -0.0683,0.15045 -0.34727,0.13896 -0.30822,-0.0127 -0.37091,-0.0754 -0.15985,-0.15985 z m 8.73125,-1.85208 c 0.191,-0.0764 0.4192,-0.067 0.50712,0.0209 0.0879,0.0879 -0.0683,0.15045 -0.34727,0.13896 -0.30822,-0.0127 -0.37091,-0.0754 -0.15985,-0.15985 z m 8.51628,-4.58176 c 0,-0.14552 0.12609,-0.26458 0.2802,-0.26458 0.15411,0 0.20661,0.11906 0.11667,0.26458 -0.0899,0.14552 -0.21602,0.26458 -0.2802,0.26458 -0.0642,0 -0.11667,-0.11906 -0.11667,-0.26458 z m -22.29788,2.77812 c 0.40388,-0.87312 0.83889,-1.66348 0.96667,-1.75635 0.12779,-0.0929 0.13846,-0.331 0.0237,-0.52917 -0.11474,-0.19817 -0.11641,-0.27728 -0.004,-0.17579 0.11269,0.10148 0.74873,-0.53897 1.41344,-1.42321 1.63166,-2.17059 4.68155,-4.7351 9.44673,-7.9433 5.9643,-4.01553 7.16934,-4.88352 10.05416,-7.24205 3.86013,-3.1559 6.08247,-5.71181 8.57702,-9.86441 2.62967,-4.37752 3.72611,-8.34735 3.72611,-13.49096 0,-6.72435 -2.04129,-12.72613 -6.35306,-18.6792 -1.79689,-2.48088 -4.40973,-5.43826 -4.8047,-5.43826 -0.12063,0 -0.21933,1.02651 -0.21933,2.28114 0,7.05299 -2.48645,14.67788 -6.68796,20.5091 -2.62007,3.63636 -5.63754,6.62698 -11.10668,11.00786 -8.60337,6.89145 -12.07564,11.23147 -13.602495,17.0019 -0.558446,2.11052 -0.613921,6.66999 -0.106233,8.73125 0.451087,1.83145 1.445526,4.04048 1.702997,3.78301 0.107256,-0.10725 0.123399,-0.008 0.03588,0.21969 -0.100073,0.26079 0.416538,1.19111 1.391934,2.50663 1.725287,2.32689 3.122847,3.63944 3.590287,3.37189 0.16957,-0.0971 0.22006,-0.0791 0.11217,0.04 -0.10787,0.11909 -0.0498,0.39289 0.12915,0.60845 0.27247,0.32831 0.37838,0.20342 0.65242,-0.7694 0.17993,-0.63874 0.65761,-1.87572 1.0615,-2.74885 z m -1.65779,0.64386 c -0.0959,-0.1552 -0.11766,-0.33893 -0.0483,-0.40829 0.0694,-0.0693 0.1966,0.0576 0.28277,0.28219 0.17891,0.46622 0.0264,0.54823 -0.23447,0.1261 z m -8.216346,1.81178 c -0.277215,-0.3229 -0.642709,-0.73797 -0.812209,-0.9224 -0.169499,-0.18442 -0.965531,-1.67641 -1.768959,-3.31552 -1.941828,-3.96163 -2.553068,-6.51726 -2.553068,-10.67454 0,-5.34312 1.465175,-9.87246 4.614866,-14.26609 2.068068,-2.88483 4.114476,-4.92656 8.482006,-8.46262 9.46554,-7.66351 12.86636,-11.34498 15.70956,-17.00596 3.43245,-6.83422 3.31314,-15.02145 -0.32346,-22.19728 -1.95843,-3.86442 -4.89223,-7.34171 -8.87604,-10.52032 -1.64908,-1.31578 -4.70772,-3.329165 -5.05485,-3.327423 -0.0728,3.65e-4 -0.14572,1.756233 -0.16214,3.901923 -0.0196,2.55739 -0.18836,4.67596 -0.49,6.15022 -1.73275,8.46876 -5.501016,14.29219 -15.237562,23.54792 -9.182341,8.72889 -11.732734,11.64562 -13.868771,15.86089 -4.559954,8.99863 -3.86185,19.7976 1.848623,28.59634 1.514306,2.33325 5.948678,6.85742 8.198393,8.36442 2.152527,1.44189 5.380654,3.08677 7.9375,4.04454 2.62078,0.98171 3.039467,1.02185 2.356111,0.2259 z m -3.017569,-0.83983 c 0,-0.0572 0.184777,-0.17489 0.410617,-0.26155 0.235459,-0.0904 0.341662,-0.046 0.248968,0.10398 -0.155379,0.25141 -0.659585,0.37186 -0.659585,0.15757 z m -3.175,-1.48351 c -0.339169,-0.21919 -0.329551,-0.25707 0.06615,-0.26054 0.254661,-0.002 0.463021,0.11502 0.463021,0.26054 0,0.32268 -0.02984,0.32268 -0.529167,0 z m -5.291667,-3.175 c -0.238467,-0.15411 -0.271101,-0.2581 -0.08176,-0.26054 0.173313,-0.002 0.388699,0.11502 0.478636,0.26054 0.203016,0.32848 0.111422,0.32848 -0.396876,0 z m -0.424324,-61.01034 c 0.215047,-0.5604 -0.02513,-0.90216 -0.634009,-0.90216 -0.594765,0 -0.896587,0.40871 -0.693208,0.93871 0.197824,0.51552 1.125168,0.48998 1.327217,-0.0366 z m 53.718966,-0.78877 c 0.22868,-0.22868 0.41577,-0.57736 0.41577,-0.77485 0,-0.46498 -0.72801,-1.19063 -1.19452,-1.19063 -0.51619,0 -1.17671,1.03779 -0.98763,1.55173 0.32524,0.88398 1.11189,1.06824 1.76638,0.41375 z M 93.972397,117.3017 c 0.971313,-0.87902 0.267706,-2.47253 -1.091736,-2.47253 -0.93102,0 -1.334826,0.45225 -1.334826,1.49497 0,1.31801 1.418792,1.88958 2.426562,0.97756 z m 35.342713,-1.75225 c 0.83777,-0.64824 0.031,-2.57237 -1.07851,-2.57237 -1.09204,0 -1.89069,1.39693 -1.29869,2.27157 0.54641,0.8073 1.5573,0.93521 2.3772,0.3008 z m -31.207608,-6.59403 c 0.843315,-0.84332 -0.201859,-2.10624 -1.27,-1.53459 -0.901227,0.48232 -0.509867,1.85209 0.529166,1.85209 0.232834,0 0.566209,-0.14288 0.740834,-0.3175 z"
         id="path17" /><path
         style="fill:#0f0f0f;fill-opacity:1;stroke-width:2.54679"
         d="M -299.52651,148.43125 V -255.87027 H 104.775 509.07652 V 148.43125 552.73277 H 104.775 -299.52651 Z m 425.39825,109.78456 c 7.60069,-1.13644 13.62318,-3.11276 22.39436,-7.34893 24.71437,-11.93612 42.32276,-34.12802 47.11212,-59.37541 1.39618,-7.36008 2.10398,-22.5867 0.93663,-20.14979 -0.44384,0.92654 -1.75833,3.67312 -2.92105,6.10352 -5.06575,10.58847 -14.73541,22.94715 -24.60438,31.44655 -4.91556,4.23338 -14.4796,10.82864 -26.65112,18.37829 -15.46102,9.59009 -24.4934,18.14948 -28.34654,26.86214 -0.88251,1.99549 -1.60456,3.89366 -1.60456,4.21816 0,0.81643 7.83971,0.73935 13.68454,-0.13434 z m -24.72547,-1.80236 c 0.79093,-3.33139 3.70991,-9.79384 6.13867,-13.59055 4.86465,-7.60474 14.87008,-16.58378 27.47575,-24.65743 33.84827,-21.67892 48.75762,-38.82662 55.06573,-63.33276 1.86317,-7.23812 1.97714,-20.52177 0.24578,-28.63803 -3.25715,-15.26861 -11.88088,-31.400555 -23.02583,-43.073087 l -4.77525,-5.001372 -0.45079,9.044375 c -0.93923,18.843914 -5.39687,32.396574 -15.82951,48.126834 -5.81674,8.77048 -14.47021,17.42275 -31.80192,31.79741 -18.439211,15.2932 -23.314335,20.76593 -28.621192,32.12959 -4.11843,8.81891 -5.322971,14.49355 -4.863262,22.91107 0.575957,10.54604 3.203218,17.80086 9.426312,26.02945 3.161743,4.18069 9.039141,10.06431 10.083032,10.0937 0.27088,0.004 0.69052,-0.82001 0.93248,-1.8392 z M 76.760211,251.6966 C 69.819222,241.3845 66.48302,231.49671 65.885459,219.46618 c -0.784052,-15.78524 3.690944,-28.89688 14.581319,-42.72292 4.803982,-6.09896 10.554899,-11.42015 23.297472,-21.55655 10.19934,-8.11333 24.32337,-22.01493 28.81709,-28.36325 10.00044,-14.12771 14.5634,-30.352488 12.71085,-45.196555 -0.87745,-7.030771 -3.00461,-14.455773 -5.88689,-20.548465 -2.53505,-5.358576 -8.98743,-14.827289 -13.36356,-19.610652 -4.58175,-5.008093 -13.41837,-12.223735 -18.57142,-15.164682 -2.03835,-1.163344 -3.80713,-2.360443 -3.93069,-2.66024 -0.80267,-1.947865 -1.13346,0.717821 -1.20764,9.731453 -0.11914,14.470531 -2.29031,24.000047 -8.328734,36.555055 -5.713258,11.878912 -16.975619,25.86832 -31.800558,39.500656 -12.836194,11.80363 -24.374693,23.58973 -28.314312,28.92188 -4.312328,5.8366 -9.155037,15.17262 -11.170271,21.53455 -2.788099,8.8018 -3.18429,11.61952 -3.126612,22.23661 0.06165,11.34618 1.24069,17.97885 4.777698,26.87682 8.06097,20.27874 26.135093,37.59275 46.954393,44.97977 8.900619,3.15805 9.05527,3.09311 5.436617,-2.28306 z M 48.622995,85.375346 c 0.224343,-0.584655 -0.0884,-1.559297 -0.694984,-2.165869 -1.021304,-1.021339 -1.184489,-1.021339 -2.205796,0 -1.377641,1.377616 -0.745309,3.228855 1.102899,3.228855 0.764483,0 1.57353,-0.478331 1.797881,-1.062986 z M 185.50053,83.608244 c 1.99115,-1.99114 0.20985,-5.255932 -2.86762,-5.255932 -1.61173,0 -2.70257,2.870544 -1.76006,4.631622 0.8429,1.574964 3.34012,1.911863 4.62768,0.62431 z M 77.436515,69.207419 c 1.499398,-1.499413 1.312274,-4.043267 -0.415847,-5.653231 -1.814281,-1.690279 -2.666901,-1.718814 -4.599369,-0.154124 -1.66999,1.35229 -1.999312,4.24671 -0.66598,5.85326 1.098753,1.323917 4.337479,1.297653 5.681196,-0.04618 z m 89.181445,-4.033111 c 1.96947,-1.37945 2.09032,-5.324775 0.19436,-6.339512 -4.34258,-2.324099 -8.27775,2.52727 -4.99363,6.156204 1.36502,1.508327 2.82787,1.564206 4.79941,0.18342 z M 87.90224,47.725151 c 1.790013,-2.156843 -0.839087,-5.47005 -3.173859,-3.999718 -2.333042,1.469237 -1.501865,4.978117 1.179212,4.978117 0.650461,0 1.548053,-0.44029 1.994647,-0.978399 z"
         id="path16" /></g></g></svg>
